<svg width="15" height="15" viewBox="0 0 15 15" fill="none" xmlns="http://www.w3.org/2000/svg"><g clip-path="url(#a)"><path d="M13.731 11.456c0 .225-.05.457-.156.681a2.579 2.579 0 0 1-.425.638 2.817 2.817 0 0 1-1.025.737 3.137 3.137 0 0 1-1.219.238c-.637 0-1.319-.15-2.037-.456a10.983 10.983 0 0 1-2.15-1.238 17.965 17.965 0 0 1-2.05-1.75 17.754 17.754 0 0 1-1.744-2.043A11.142 11.142 0 0 1 1.7 6.13c-.3-.712-.45-1.394-.45-2.043 0-.425.075-.832.225-1.207.15-.381.387-.731.719-1.043.4-.394.837-.588 1.3-.588.175 0 .35.038.506.113.162.075.306.187.419.35l1.45 2.043c.112.157.194.3.25.438a.988.988 0 0 1 .087.381c0 .15-.044.3-.131.444-.081.143-.2.293-.35.444l-.475.493a.334.334 0 0 0-.1.25c0 .05.006.094.019.144.019.05.037.088.05.125.112.206.306.475.581.8.281.325.581.656.906.987.338.332.663.638.994.92.325.274.594.462.806.574l.113.05c.05.019.1.025.156.025a.344.344 0 0 0 .256-.106l.475-.469c.156-.156.306-.275.45-.35a.832.832 0 0 1 .444-.131c.119 0 .244.025.381.081.138.056.281.138.438.244l2.069 1.469a.948.948 0 0 1 .343.4c.063.156.1.312.1.487Z" stroke="#0060FF" stroke-width="1.5" stroke-miterlimit="10"/></g><defs><clipPath id="a"><path fill="#fff" d="M0 0h15v15H0z"/></clipPath></defs></svg>