<svg width="27" height="27" viewBox="0 0 27 27" fill="none" xmlns="http://www.w3.org/2000/svg"><path d="M24.716 20.621c0 .405-.09.822-.281 1.227a4.642 4.642 0 0 1-.765 1.147c-.551.607-1.159 1.046-1.845 1.328a5.648 5.648 0 0 1-2.194.427c-1.147 0-2.373-.27-3.667-.821-1.294-.551-2.588-1.294-3.87-2.228a32.335 32.335 0 0 1-3.69-3.15 31.965 31.965 0 0 1-3.139-3.678C4.343 13.59 3.6 12.306 3.06 11.036c-.54-1.282-.81-2.508-.81-3.678 0-.765.135-1.497.405-2.172a5.178 5.178 0 0 1 1.294-1.878c.72-.71 1.507-1.058 2.34-1.058.315 0 .63.067.911.203.292.135.551.337.754.63l2.61 3.678c.202.282.348.54.45.788.101.236.157.472.157.686 0 .27-.079.54-.236.799-.146.258-.36.528-.63.798l-.855.89a.602.602 0 0 0-.18.45c0 .09.011.168.034.258.034.09.067.158.09.225.202.371.551.855 1.046 1.44a38.425 38.425 0 0 0 1.631 1.777 33.778 33.778 0 0 0 1.789 1.654c.585.495 1.069.833 1.451 1.035.056.023.124.056.203.09.09.034.18.045.281.045a.619.619 0 0 0 .461-.191l.855-.844c.281-.281.552-.495.81-.63.259-.157.518-.236.799-.236.214 0 .439.045.686.146.248.101.507.248.788.439l3.724 2.644c.292.202.495.438.618.72.113.281.18.562.18.877Z" stroke="#fff" stroke-width="1.5" stroke-miterlimit="10"/></svg>