<svg width="17" height="11" viewBox="0 0 17 11" fill="none" xmlns="http://www.w3.org/2000/svg"><g clip-path="url(#a)" stroke="#61656F"><path d="M1 2.156C1 1.52 1.52 1 2.167 1h12.666C15.481 1 16 1.52 16 2.156v6.688C16 9.479 15.48 10 14.833 10H2.167A1.16 1.16 0 0 1 1 8.844V2.156Z"/><path d="m15.662 1.031-3.624 3.04-1.082.907m0 0-.614.515a3 3 0 0 1-3.855 0l-.614-.515m5.083 0 4.878 4.927M1.167 1.031l4.706 3.947m0 0L1.167 9.905"/></g><defs><clipPath id="a"><path fill="#fff" transform="translate(0 .5)" d="M0 0h17v10H0z"/></clipPath></defs></svg>