<svg width="24" height="23" viewBox="0 0 24 23" fill="none" xmlns="http://www.w3.org/2000/svg"><mask id="b" style="mask-type:alpha" maskUnits="userSpaceOnUse" x="-3" y="-2" width="27" height="26"><g clip-path="url(#a)"><path d="M16.291 11.024a.75.75 0 0 0-.75-.75h-4.5v-4.5a.75.75 0 0 0-1.5 0v4.5h-4.5a.749.749 0 1 0 0 1.5h4.5v4.5a.75.75 0 1 0 1.5 0v-4.5h4.5a.75.75 0 0 0 .75-.75Z" fill="#5E7491"/></g></mask><g mask="url(#b)"><path fill="#028DD8" d="m12 .006 11.31 11.31L12 22.626.69 11.316z"/></g><defs><clipPath id="a"><path fill="#fff" transform="rotate(45 7.201 11.57)" d="M0 0h18v18H0z"/></clipPath></defs></svg>