<svg width="18" height="18" viewBox="0 0 18 18" fill="none" xmlns="http://www.w3.org/2000/svg"><g clip-path="url(#a)" fill="#2F3644"><path fill-rule="evenodd" clip-rule="evenodd" d="M.68.609a1.035 1.035 0 0 1 1.385.458L3.07 3.065h11.717c1.517 0 2.626 1.421 2.249 2.882l-.993 3.847a2.32 2.32 0 0 1-2.25 1.734h-8.14c-.98 0-1.855-.612-2.186-1.529L1.48 4.495.22 1.985A1.023 1.023 0 0 1 .68.609Zm3.218 4.508 1.51 4.19a.26.26 0 0 0 .244.17h8.142c.118 0 .22-.08.25-.193l.993-3.847a.257.257 0 0 0-.25-.32H3.897Z"/><path d="M15.33 14.99a1.93 1.93 0 0 1-1.934 1.924 1.93 1.93 0 0 1-1.935-1.924 1.93 1.93 0 0 1 1.934-1.923 1.93 1.93 0 0 1 1.935 1.923Zm-7.74 0a1.93 1.93 0 0 1-1.933 1.924 1.93 1.93 0 0 1-1.935-1.924 1.93 1.93 0 0 1 1.934-1.923A1.93 1.93 0 0 1 7.59 14.99Z"/></g><defs><clipPath id="a"><path fill="#fff" transform="translate(.11 .5)" d="M0 0h17v17H0z"/></clipPath></defs></svg>