<svg viewBox="0 0 26 48" xmlns="http://www.w3.org/2000/svg"><style><![CDATA[:root>svg{display:none}:root>svg:target{display:block}]]></style><svg fill="none" viewBox="0 0 16 15" id="add-comparison" xmlns="http://www.w3.org/2000/svg"><path fill-rule="evenodd" clip-rule="evenodd" d="M15.08 2.25h-15v-2h15v2Zm0 5h-15v-2h15v2Zm-15 5h6v-2h-6v2Zm10 0h-2v-2h2v-2h2v2h2v2h-2v2h-2v-2Z" fill="#028DD8"/></svg><svg fill="none" viewBox="0 0 16 10" id="arrow-b" xmlns="http://www.w3.org/2000/svg"><path d="M15.993 1.682a1.079 1.079 0 0 0-1.844-.764L8.147 6.935 2.143.918a1.08 1.08 0 0 0-1.525 1.53l7.53 7.546 7.529-7.547a1.08 1.08 0 0 0 .316-.765Z" fill="#9BA5AC"/></svg><svg fill="none" viewBox="0 0 13 13" id="arrow-t" xmlns="http://www.w3.org/2000/svg"><mask id="cb" style="mask-type:alpha" maskUnits="userSpaceOnUse" x="0" y="0" width="13" height="13"><g clip-path="url(#ca)"><path d="m1.84 9.56 5-5 5 5" stroke="#013A59" stroke-width="2" stroke-linecap="round"/></g></mask><g mask="url(#cb)"><path fill="#028DD8" d="M.84 12.56v-12h12v12z"/></g><defs><clipPath id="ca"><path fill="#fff" transform="rotate(-90 5.7 4.86)" d="M0 0h8v12H0z"/></clipPath></defs></svg><svg fill="none" viewBox="0 0 26 48" id="bascet" xmlns="http://www.w3.org/2000/svg"><path fill="#fff" d="M.21 0h24.8v48H.21z"/></svg><svg fill="none" viewBox="0 0 16 16" id="location" xmlns="http://www.w3.org/2000/svg"><path d="M8 8.953a2.08 2.08 0 1 0 0-4.16 2.08 2.08 0 0 0 0 4.16Z" stroke="#E4A80B" stroke-width="1.5"/><path d="M2.413 5.66c1.314-5.773 9.867-5.767 11.174.007.766 3.386-1.34 6.253-3.187 8.026a3.462 3.462 0 0 1-4.807 0c-1.84-1.773-3.946-4.646-3.18-8.033Z" stroke="#E4A80B" stroke-width="1.5"/></svg><svg fill="none" viewBox="0 0 17 11" id="mail" xmlns="http://www.w3.org/2000/svg"><g clip-path="url(#fa)" stroke="#61656F"><path d="M1 2.156C1 1.52 1.52 1 2.167 1h12.666C15.481 1 16 1.52 16 2.156v6.688C16 9.479 15.48 10 14.833 10H2.167A1.16 1.16 0 0 1 1 8.844V2.156Z"/><path d="m15.662 1.031-3.624 3.04-1.082.907m0 0-.614.515a3 3 0 0 1-3.855 0l-.614-.515m5.083 0 4.878 4.927M1.167 1.031l4.706 3.947m0 0L1.167 9.905"/></g><defs><clipPath id="fa"><path fill="#fff" transform="translate(0 .5)" d="M0 0h17v10H0z"/></clipPath></defs></svg><svg fill="none" viewBox="0 0 24 23" id="plus" xmlns="http://www.w3.org/2000/svg"><mask id="gb" style="mask-type:alpha" maskUnits="userSpaceOnUse" x="-3" y="-2" width="27" height="26"><g clip-path="url(#ga)"><path d="M16.291 11.024a.75.75 0 0 0-.75-.75h-4.5v-4.5a.75.75 0 0 0-1.5 0v4.5h-4.5a.749.749 0 1 0 0 1.5h4.5v4.5a.75.75 0 1 0 1.5 0v-4.5h4.5a.75.75 0 0 0 .75-.75Z" fill="#5E7491"/></g></mask><g mask="url(#gb)"><path fill="#028DD8" d="m12 .006 11.31 11.31L12 22.626.69 11.316z"/></g><defs><clipPath id="ga"><path fill="#fff" transform="rotate(45 7.201 11.57)" d="M0 0h18v18H0z"/></clipPath></defs></svg><svg fill="none" viewBox="0 0 19 19" id="tel" xmlns="http://www.w3.org/2000/svg"><path d="M17.393 14.511c0 .285-.064.578-.198.863a3.266 3.266 0 0 1-.538.808 3.569 3.569 0 0 1-1.299.934c-.475.198-.99.3-1.543.3-.808 0-1.67-.19-2.581-.577-.91-.388-1.821-.91-2.724-1.568a22.752 22.752 0 0 1-2.596-2.216 22.497 22.497 0 0 1-2.21-2.589c-.648-.902-1.17-1.805-1.55-2.7-.38-.902-.57-1.765-.57-2.588 0-.539.094-1.053.284-1.528a3.65 3.65 0 0 1 .91-1.322c.507-.5 1.062-.744 1.647-.744.222 0 .444.047.642.142.205.095.388.238.53.443l1.837 2.59c.142.197.245.38.316.553.072.167.111.333.111.483 0 .19-.055.38-.166.562a2.693 2.693 0 0 1-.443.562l-.602.626a.424.424 0 0 0-.127.316c0 .064.008.12.024.183.024.063.048.11.063.158.143.261.388.601.737 1.013.356.412.736.831 1.147 1.251.428.42.84.808 1.26 1.164.41.348.751.586 1.02.728.04.016.088.04.143.063a.546.546 0 0 0 .198.032.436.436 0 0 0 .325-.134l.601-.594c.198-.198.388-.349.57-.444a1.06 1.06 0 0 1 .562-.166c.15 0 .309.032.483.103s.356.174.554.309l2.62 1.86c.207.143.35.309.436.507.08.198.127.396.127.617Z" stroke="#E4A80B" stroke-width="1.5" stroke-miterlimit="10"/></svg></svg>