<svg width="56" height="56" viewBox="0 0 56 56" fill="none" xmlns="http://www.w3.org/2000/svg"><circle cx="28" cy="28" r="28" fill="#EEE"/><g clip-path="url(#a)"><path fill-rule="evenodd" clip-rule="evenodd" d="M11.017 36.56c-.002.477.136.944.396 1.34.259.398.628.707 1.06.89.432.183.907.23 1.366.137a2.34 2.34 0 0 0 1.21-.661l13.13-13.427L41.31 38.266a2.34 2.34 0 0 0 1.668.691 2.34 2.34 0 0 0 1.662-.708c.44-.45.688-1.06.69-1.696a2.436 2.436 0 0 0-.682-1.7l-16.47-16.839-16.471 16.84a2.418 2.418 0 0 0-.691 1.706Z" fill="#C1C1C1"/></g><defs><clipPath id="a"><path fill="#fff" transform="rotate(90 14 32)" d="M0 0h21v35H0z"/></clipPath></defs></svg>