<svg width="18" height="18" viewBox="0 0 18 18" fill="none" xmlns="http://www.w3.org/2000/svg">
<g clip-path="url(#clip0_113_5)">
<path id="Vector" fill-rule="evenodd" clip-rule="evenodd" d="M0.679791 0.608994C0.924349 0.487018 1.20722 0.466716 1.46669 0.552519C1.72616 0.638322 1.94117 0.823265 2.06479 1.06699L3.06979 3.06499H14.7868C16.3038 3.06499 17.4128 4.48599 17.0358 5.94699L16.0428 9.79399C15.913 10.2913 15.6217 10.7315 15.2146 11.0453C14.8075 11.3591 14.3078 11.5289 13.7938 11.528H5.65179C4.67179 11.528 3.79679 10.916 3.46579 9.99899L1.48079 4.49499L0.219791 1.98499C0.15929 1.86446 0.12322 1.73314 0.113658 1.59861C0.104096 1.46408 0.121231 1.32899 0.164076 1.2011C0.20692 1.07322 0.27463 0.95507 0.363309 0.853452C0.451987 0.751835 0.558884 0.668755 0.679791 0.608994ZM3.89779 5.11699L5.40779 9.30699C5.44579 9.40899 5.54279 9.47699 5.65179 9.47699H13.7938C13.9118 9.47699 14.0138 9.39699 14.0438 9.28399L15.0368 5.43699C15.0464 5.399 15.0472 5.35932 15.0391 5.32098C15.031 5.28264 15.0143 5.24665 14.9902 5.21577C14.966 5.18489 14.9352 5.15994 14.8999 5.14282C14.8647 5.1257 14.826 5.11687 14.7868 5.11699H3.89779Z" fill="#2F3644"/>
<path id="Vector_2" d="M15.3299 14.99C15.3283 15.5015 15.1237 15.9915 14.7611 16.3522C14.3985 16.713 13.9074 16.9151 13.3959 16.914C12.8842 16.9153 12.3929 16.7134 12.0301 16.3526C11.6672 15.9918 11.4625 15.5017 11.4609 14.99C11.4628 14.4786 11.6675 13.9889 12.0301 13.6284C12.3927 13.2678 12.8836 13.0659 13.3949 13.067C13.9064 13.0657 14.3976 13.2675 14.7604 13.628C15.1232 13.9886 15.3281 14.4785 15.3299 14.99ZM7.59092 14.99C7.58933 15.5015 7.38475 15.9915 7.02211 16.3522C6.65947 16.713 6.16845 16.9151 5.65692 16.914C5.14523 16.9153 4.65395 16.7134 4.29109 16.3526C3.92824 15.9918 3.72351 15.5017 3.72192 14.99C3.72378 14.4786 3.92848 13.9889 4.29109 13.6284C4.6537 13.2678 5.14457 13.0659 5.65592 13.067C6.16745 13.0657 6.65858 13.2675 7.0214 13.628C7.38423 13.9886 7.58907 14.4785 7.59092 14.99Z" fill="#2F3644"/>
</g>
<defs>
<clipPath id="clip0_113_5">
<rect width="17" height="17" fill="white" transform="translate(0.109863 0.5)"/>
</clipPath>
</defs>
</svg>
