<svg width="56" height="56" viewBox="0 0 56 56" fill="none" xmlns="http://www.w3.org/2000/svg">
<circle cx="28" cy="28" r="28" fill="#EEEEEE"/>
<g clip-path="url(#clip0_103_1222)">
<path fill-rule="evenodd" clip-rule="evenodd" d="M11.0165 36.56C11.0154 37.037 11.1533 37.5036 11.4126 37.9006C11.6718 38.2977 12.0409 38.6072 12.4729 38.7899C12.9049 38.9727 13.3804 39.0204 13.8391 38.9271C14.2977 38.8338 14.7189 38.6037 15.0491 38.2659L28.1782 24.8392L41.3114 38.2659C41.7562 38.7118 42.3558 38.9602 42.9794 38.9571C43.603 38.9539 44.2001 38.6994 44.6406 38.2491C45.081 37.7988 45.329 37.1891 45.3306 36.553C45.3321 35.9169 45.087 35.3059 44.6488 34.8534L28.1782 18.0142L11.7076 34.8534C11.488 35.0775 11.314 35.3436 11.1954 35.6364C11.0768 35.9293 11.016 36.2431 11.0165 36.56Z" fill="#C1C1C1"/>
</g>
<defs>
<clipPath id="clip0_103_1222">
<rect width="21" height="35" fill="white" transform="translate(46 18) rotate(90)"/>
</clipPath>
</defs>
</svg>
