<svg width="16" height="16" viewBox="0 0 16 16" fill="none" xmlns="http://www.w3.org/2000/svg">
<g id="Iconsax/Linear/profile">
<path id="Vector" d="M8.10657 7.24682C8.0399 7.24016 7.9599 7.24016 7.88657 7.24682C7.12137 7.22084 6.39633 6.89805 5.86499 6.3468C5.33364 5.79554 5.03773 5.05912 5.0399 4.29349C5.0399 2.66016 6.3599 1.33349 7.9999 1.33349C8.38817 1.32648 8.77403 1.39603 9.13543 1.53814C9.49683 1.68026 9.82669 1.89216 10.1062 2.16176C10.3857 2.43136 10.6094 2.75338 10.7644 3.10941C10.9195 3.46545 11.0029 3.84855 11.0099 4.23682C11.0169 4.6251 10.9474 5.01095 10.8052 5.37235C10.6631 5.73375 10.4512 6.06362 10.1816 6.34312C9.91202 6.62263 9.59001 6.84629 9.23397 7.00135C8.87793 7.15641 8.49484 7.23982 8.10657 7.24682ZM4.77323 9.70682C3.1599 10.7868 3.1599 12.5468 4.77323 13.6202C6.60657 14.8468 9.61323 14.8468 11.4466 13.6202C13.0599 12.5402 13.0599 10.7802 11.4466 9.70682C9.6199 8.48682 6.61323 8.48682 4.77323 9.70682Z" stroke="#0060FF" stroke-width="1.5" stroke-linecap="round" stroke-linejoin="round"/>
</g>
</svg>
