<svg width="16" height="10" viewBox="0 0 16 10" fill="none" xmlns="http://www.w3.org/2000/svg">
<path id="Vector" d="M15.9926 1.6823C15.9931 1.4685 15.9301 1.25937 15.8115 1.08143C15.693 0.903495 15.5243 0.764775 15.3268 0.682869C15.1293 0.600964 14.9119 0.579561 14.7023 0.621378C14.4926 0.663196 14.3001 0.766347 14.1491 0.917748L8.14723 6.93532L2.14347 0.917748C1.94014 0.717909 1.66606 0.606554 1.38098 0.607962C1.09589 0.609368 0.822922 0.723424 0.621582 0.925261C0.420242 1.1271 0.30686 1.40035 0.306156 1.68544C0.305451 1.97052 0.417481 2.24433 0.617821 2.44716L8.14723 9.99414L15.6766 2.44716C15.777 2.34671 15.8566 2.22745 15.9108 2.0962C15.965 1.96495 15.9928 1.8243 15.9926 1.6823Z" fill="#9BA5AC"/>
</svg>
