<svg width="16" height="16" viewBox="0 0 16 16" fill="none" xmlns="http://www.w3.org/2000/svg">
<path d="M7.99992 8.95346C8.27307 8.95346 8.54355 8.89966 8.7959 8.79513C9.04826 8.6906 9.27756 8.53739 9.4707 8.34424C9.66385 8.15109 9.81706 7.9218 9.92159 7.66944C10.0261 7.41708 10.0799 7.14661 10.0799 6.87346C10.0799 6.60031 10.0261 6.32983 9.92159 6.07748C9.81706 5.82512 9.66385 5.59582 9.4707 5.40267C9.27756 5.20953 9.04826 5.05632 8.7959 4.95179C8.54355 4.84726 8.27307 4.79346 7.99992 4.79346C7.44827 4.79346 6.91922 5.0126 6.52914 5.40267C6.13906 5.79275 5.91992 6.32181 5.91992 6.87346C5.91992 7.42511 6.13906 7.95416 6.52914 8.34424C6.91922 8.73432 7.44827 8.95346 7.99992 8.95346Z" stroke="#E4A80B" stroke-width="1.5"/>
<path d="M2.4133 5.66016C3.72664 -0.113169 12.28 -0.106502 13.5866 5.66683C14.3533 9.0535 12.2466 11.9202 10.4 13.6935C9.75469 14.3159 8.89314 14.6636 7.99664 14.6636C7.10013 14.6636 6.23859 14.3159 5.5933 13.6935C3.7533 11.9202 1.64664 9.04683 2.4133 5.66016Z" stroke="#E4A80B" stroke-width="1.5"/>
</svg>
