<svg width="17" height="11" viewBox="0 0 17 11" fill="none" xmlns="http://www.w3.org/2000/svg">
<g id="mail-7fa79c83d325d2229447e933eb89e735.svg" clip-path="url(#clip0_137_2358)">
<path id="Vector" d="M1 2.156C1 1.52 1.52 1 2.167 1H14.833C15.481 1 16 1.52 16 2.156V8.844C16 9.479 15.48 10 14.833 10H2.167C1.519 10 1 9.48 1 8.844V2.156Z" stroke="#61656F"/>
<path id="Vector_2" d="M15.662 1.03125L12.038 4.07125L10.956 4.97825M10.956 4.97825L10.342 5.49325C9.80182 5.94616 9.11941 6.19439 8.41449 6.19439C7.70957 6.19439 7.02716 5.94616 6.48699 5.49325L5.87299 4.97825M10.956 4.97825L15.834 9.90525M1.16699 1.03125L5.87299 4.97825M5.87299 4.97825L1.16699 9.90525" stroke="#61656F"/>
</g>
<defs>
<clipPath id="clip0_137_2358">
<rect width="17" height="10" fill="white" transform="translate(0 0.5)"/>
</clipPath>
</defs>
</svg>
