<svg width="24" height="23" viewBox="0 0 24 23" fill="none" xmlns="http://www.w3.org/2000/svg">
<mask id="mask0_139_55" style="mask-type:alpha" maskUnits="userSpaceOnUse" x="-3" y="-2" width="27" height="26">
<g clip-path="url(#clip0_139_55)">
<path d="M16.2912 11.0244C16.2912 10.8255 16.2122 10.6348 16.0715 10.4941C15.9309 10.3535 15.7402 10.2745 15.5413 10.2745L11.0409 10.2745L11.0409 5.7741C11.0375 5.57747 10.957 5.39005 10.8168 5.25221C10.6765 5.11437 10.4877 5.03713 10.2911 5.03713C10.0944 5.03713 9.90561 5.11437 9.76535 5.25221C9.62509 5.39005 9.54458 5.57747 9.54117 5.7741L9.54117 10.2745L5.04078 10.2745C4.94121 10.2727 4.84229 10.2909 4.74979 10.3278C4.6573 10.3647 4.57308 10.4196 4.50205 10.4894C4.43102 10.5593 4.37461 10.6425 4.3361 10.7343C4.29758 10.8262 4.27775 10.9248 4.27775 11.0244C4.27775 11.124 4.29758 11.2225 4.3361 11.3144C4.37461 11.4062 4.43102 11.4895 4.50205 11.5593C4.57308 11.6291 4.6573 11.684 4.74979 11.721C4.84229 11.7579 4.94121 11.776 5.04079 11.7743L9.54117 11.7743V16.2746C9.53944 16.3742 9.55755 16.4731 9.59446 16.5656C9.63137 16.6581 9.68633 16.7423 9.75613 16.8134C9.82594 16.8844 9.90919 16.9408 10.001 16.9793C10.0929 17.0178 10.1915 17.0377 10.2911 17.0377C10.3906 17.0377 10.4892 17.0178 10.5811 16.9793C10.6729 16.9408 10.7562 16.8844 10.826 16.8134C10.8958 16.7423 10.9507 16.6581 10.9876 16.5656C11.0246 16.4731 11.0427 16.3742 11.0409 16.2746V11.7743L15.5413 11.7743C15.7402 11.7742 15.9309 11.6952 16.0715 11.5546C16.2122 11.414 16.2912 11.2232 16.2912 11.0244Z" fill="#5E7491"/>
</g>
</mask>
<g mask="url(#mask0_139_55)">
<rect x="12" y="0.00585938" width="15.9948" height="15.9948" transform="rotate(45 12 0.00585938)" fill="#028DD8"/>
</g>
<defs>
<clipPath id="clip0_139_55">
<rect width="18" height="18" fill="white" transform="translate(10.291 -1.70312) rotate(45)"/>
</clipPath>
</defs>
</svg>
