<svg width="27" height="27" viewBox="0 0 27 27" fill="none" xmlns="http://www.w3.org/2000/svg">
<g id="Iconsax/Linear/location">
<path id="Vector" d="M13.5 15.1089C13.9609 15.1089 14.4174 15.0181 14.8432 14.8417C15.2691 14.6653 15.656 14.4067 15.9819 14.0808C16.3079 13.7549 16.5664 13.3679 16.7428 12.9421C16.9192 12.5162 17.01 12.0598 17.01 11.5989C17.01 11.1379 16.9192 10.6815 16.7428 10.2556C16.5664 9.8298 16.3079 9.44286 15.9819 9.11692C15.656 8.79099 15.2691 8.53244 14.8432 8.35605C14.4174 8.17966 13.9609 8.08887 13.5 8.08887C12.5691 8.08887 11.6763 8.45867 11.018 9.11692C10.3598 9.77517 9.98999 10.668 9.98999 11.5989C9.98999 12.5298 10.3598 13.4226 11.018 14.0808C11.6763 14.7391 12.5691 15.1089 13.5 15.1089Z" stroke="white" stroke-width="1.5"/>
<path id="Vector_2" d="M4.07242 9.55125C6.28867 -0.191247 20.7224 -0.179997 22.9274 9.5625C24.2212 15.2775 20.6662 20.115 17.5499 23.1075C16.461 24.1577 15.0071 24.7446 13.4943 24.7446C11.9814 24.7446 10.5276 24.1577 9.43867 23.1075C6.33367 20.115 2.77867 15.2663 4.07242 9.55125Z" stroke="white" stroke-width="1.5"/>
</g>
</svg>
